<svg width="62" height="29" viewBox="0 0 62 29" fill="none" xmlns="http://www.w3.org/2000/svg">
<g clip-path="url(#clip0_2_138)">
<path d="M10.8856 9.07452H7.13791C7.06171 9.07452 6.99243 9.14502 6.99243 9.22257V9.92048C6.99243 10.0051 7.06171 10.0685 7.13791 10.0685H10.8856C11.4121 10.0685 11.8346 10.5056 11.8346 11.0414V12.0424C11.8346 12.5782 11.4121 13.0153 10.8856 13.0153H7.96919V11.2176C7.96919 11.133 7.90684 11.0696 7.82371 11.0696H7.13791C7.06171 11.0696 6.99243 11.133 6.99243 11.2176V13.8612C6.99243 13.9388 7.06171 14.0093 7.13791 14.0093H10.8856C11.9524 14.0093 12.8183 13.1281 12.8183 12.0424V11.0414C12.8183 9.95573 11.9524 9.07452 10.8856 9.07452Z" fill="#00ACC1"/>
<path d="M21.1369 13.7907L19.0518 9.69488C18.837 9.2719 18.4352 8.96877 17.9711 8.92647C17.4169 8.87712 16.9112 9.16616 16.6618 9.65963L14.5559 13.7907C14.5074 13.8894 14.5767 14.0093 14.6876 14.0093H15.4634C15.5188 14.0093 15.5673 13.9811 15.595 13.9317L17.5278 10.1179C17.6178 9.94162 17.7841 9.92047 17.8464 9.92047C17.9088 9.92047 18.075 9.94162 18.1651 10.1179L20.0978 13.9317C20.1255 13.9811 20.174 14.0093 20.2294 14.0093H21.0053C21.1161 14.0093 21.1854 13.8894 21.1369 13.7907Z" fill="#00ACC1"/>
<path d="M29.7508 9.07452H29.065C28.9888 9.07452 28.9195 9.14502 28.9195 9.22257V12.1129C28.9195 12.6134 28.5246 13.0153 28.0397 13.0153H27.8042C27.3193 13.0153 26.9244 12.6134 26.9244 12.1129V9.22257C26.9244 9.13797 26.8552 9.07452 26.772 9.07452H26.0862C26.01 9.07452 25.9408 9.13797 25.9408 9.22257V12.1129C25.9408 12.4372 26.0239 12.7474 26.1624 13.0153H24.8047C24.3128 13.0153 23.918 12.6134 23.918 12.1129V9.22257C23.918 9.13797 23.8556 9.07452 23.7725 9.07452H23.0867C23.0105 9.07452 22.9412 9.13797 22.9412 9.22257V12.1129C22.9412 13.1563 23.7794 14.0093 24.8047 14.0093H28.0397C29.065 14.0093 29.9032 13.1633 29.9032 12.1129V9.22257C29.9032 9.13797 29.8339 9.07452 29.7508 9.07452Z" fill="#00ACC1"/>
<path d="M38.2433 13.7907L36.1582 9.69488C35.9434 9.2719 35.5416 8.96877 35.0775 8.92647C34.5233 8.87712 34.0176 9.16616 33.7682 9.65963L31.6623 13.7907C31.6138 13.8894 31.6831 14.0093 31.7939 14.0093H32.5698C32.6252 14.0093 32.6737 13.9811 32.7014 13.9317L34.6341 10.1179C34.7242 9.94162 34.8905 9.92047 34.9528 9.92047C35.0151 9.92047 35.1814 9.94162 35.2715 10.1179L37.2042 13.9317C37.2319 13.9811 37.2804 14.0093 37.3358 14.0093H38.1117C38.2225 14.0093 38.2918 13.8894 38.2433 13.7907Z" fill="#00ACC1"/>
<path d="M40.8937 13.0223H40.2079C40.1248 13.0223 40.0624 13.0928 40.0624 13.1774V13.8753C40.0624 13.9529 40.1248 14.0234 40.2079 14.0234H40.8937C40.9768 14.0234 41.0392 13.9529 41.0392 13.8753V13.1774C41.0392 13.0928 40.9768 13.0223 40.8937 13.0223Z" fill="#00ACC1"/>
<path d="M49.4505 13.7907L47.3654 9.69488C47.1506 9.2719 46.7488 8.96877 46.2847 8.92647C45.7305 8.87712 45.2248 9.16616 44.9754 9.65963L42.8695 13.7907C42.821 13.8894 42.8903 14.0093 43.0012 14.0093H43.777C43.8324 14.0093 43.8809 13.9811 43.9086 13.9317L45.8414 10.1179C45.9314 9.94162 46.0977 9.92047 46.16 9.92047C46.2224 9.92047 46.3886 9.94162 46.4787 10.1179L48.4114 13.9317C48.4391 13.9811 48.4876 14.0093 48.543 14.0093H49.3189C49.4297 14.0093 49.499 13.8894 49.4505 13.7907Z" fill="#00ACC1"/>
<g clip-path="url(#clip1_2_138)">
<path d="M52.5226 9.22989C52.0318 9.22625 51.5296 9.66489 51.5206 10.4107L51.519 12.867C51.5186 13.5176 51.9675 14.0447 52.5196 14.0461C52.9785 14.0472 53.5017 13.634 53.5216 12.8652L53.5231 10.4089C53.5235 9.75828 53.0747 9.23393 52.5226 9.22981L52.5226 9.22989ZM53.3203 12.8654C53.3202 13.1173 53.1541 13.8084 52.5197 13.8089C52.0786 13.8093 51.7199 13.3866 51.7203 12.8668L51.7209 11.8635C51.8638 11.695 52.4052 11.1852 53.321 11.7325L53.3203 12.8654ZM53.2379 10.4711C53.2379 10.4711 53.1127 10.1519 52.9207 9.92564C52.7287 9.69939 52.47 9.56603 52.47 9.56603C52.8944 9.56569 53.2382 9.97081 53.2379 10.4711L53.2379 10.4711Z" fill="#00ACC1"/>
</g>
</g>
<path d="M1.5419 16.9344V18.303H1.23654V16.3673H1.48737L2.58338 17.7659V16.37H2.89146V18.303H2.62427L1.5419 16.9344ZM3.91061 18.3303C3.79974 18.3303 3.69886 18.3112 3.60798 18.273C3.51892 18.2331 3.44168 18.1794 3.37624 18.1122C3.31081 18.0431 3.25992 17.965 3.22356 17.8777C3.18903 17.7887 3.17176 17.6941 3.17176 17.5942C3.17176 17.4597 3.20266 17.337 3.26446 17.2261C3.32626 17.1134 3.41259 17.0235 3.52347 16.9562C3.63434 16.8871 3.7643 16.8526 3.91334 16.8526C4.06238 16.8526 4.19052 16.8871 4.29776 16.9562C4.40681 17.0235 4.49133 17.1125 4.55131 17.2234C4.61129 17.3343 4.64128 17.4533 4.64128 17.5805C4.64128 17.6024 4.64037 17.6233 4.63856 17.6433C4.63674 17.6614 4.63492 17.6769 4.6331 17.6896H3.49075C3.4962 17.7732 3.51892 17.8468 3.55891 17.9104C3.60071 17.9722 3.65342 18.0213 3.71704 18.0577C3.78066 18.0922 3.84882 18.1095 3.92152 18.1095C4.00149 18.1095 4.07692 18.0895 4.14781 18.0495C4.22051 18.0095 4.26959 17.9568 4.29503 17.8914L4.55131 17.965C4.52041 18.034 4.47316 18.0967 4.40954 18.1531C4.34774 18.2076 4.27413 18.2512 4.1887 18.284C4.10328 18.3149 4.01058 18.3303 3.91061 18.3303ZM3.48257 17.4906H4.34411C4.33866 17.4088 4.31503 17.337 4.27322 17.2752C4.23323 17.2116 4.18143 17.1625 4.11782 17.128C4.05602 17.0916 3.98695 17.0734 3.91061 17.0734C3.83609 17.0734 3.76702 17.0916 3.70341 17.128C3.64161 17.1625 3.59072 17.2116 3.55073 17.2752C3.51074 17.337 3.48802 17.4088 3.48257 17.4906ZM5.0017 16.8771L5.33977 17.3652L5.36431 17.4115L5.38884 17.3652L5.72419 16.8771H6.04863L5.53607 17.5915L6.05408 18.303H5.72964L5.38884 17.8177L5.36431 17.7741L5.33977 17.8177L4.99897 18.303H4.67453L5.19255 17.5942L4.67999 16.8771H5.0017ZM7.05047 18.2294C7.02502 18.2422 6.99321 18.2558 6.95504 18.2703C6.91688 18.2849 6.87325 18.2976 6.82418 18.3085C6.77692 18.3194 6.72785 18.3249 6.67695 18.3249C6.61516 18.3249 6.5579 18.3139 6.50519 18.2921C6.45248 18.2703 6.40977 18.2358 6.37705 18.1885C6.34615 18.1395 6.3307 18.0767 6.3307 18.0004V17.1089H6.14258V16.8771H6.3307V16.4082H6.63061V16.8771H6.94141V17.1089H6.63061V17.905C6.63424 17.9541 6.64969 17.9904 6.67695 18.014C6.70603 18.0377 6.74148 18.0495 6.78328 18.0495C6.82509 18.0495 6.86507 18.0422 6.90324 18.0277C6.94141 18.0131 6.96959 18.0013 6.98776 17.9922L7.05047 18.2294ZM8.49615 18.3167C8.39982 18.3167 8.31167 18.2976 8.23169 18.2594C8.15172 18.2194 8.08265 18.1658 8.02449 18.0986C7.96814 18.0313 7.92361 17.9541 7.8909 17.8668C7.86 17.7796 7.84455 17.6878 7.84455 17.5915C7.84455 17.4897 7.86091 17.3942 7.89362 17.3052C7.92634 17.2161 7.97178 17.138 8.02994 17.0707C8.08992 17.0016 8.1599 16.948 8.23987 16.9099C8.31985 16.8717 8.40891 16.8526 8.50706 16.8526C8.62157 16.8526 8.72153 16.8799 8.80696 16.9344C8.89421 16.9889 8.966 17.0598 9.02235 17.1471V16.8771H9.2868V18.2621C9.2868 18.4003 9.25318 18.5175 9.18593 18.6138C9.1205 18.7102 9.03052 18.7838 8.91602 18.8347C8.80151 18.8856 8.67246 18.911 8.52887 18.911C8.37074 18.911 8.23987 18.8838 8.13627 18.8292C8.03267 18.7747 7.94452 18.7002 7.87181 18.6057L8.04085 18.4475C8.09538 18.5239 8.16535 18.582 8.25078 18.622C8.33802 18.662 8.43072 18.682 8.52887 18.682C8.61066 18.682 8.68609 18.6666 8.75516 18.6357C8.82605 18.6066 8.88239 18.5602 8.9242 18.4966C8.966 18.4348 8.9869 18.3567 8.9869 18.2621V18.044C8.93601 18.1295 8.86603 18.1967 8.77697 18.2458C8.68791 18.293 8.5943 18.3167 8.49615 18.3167ZM8.5943 18.074C8.63974 18.074 8.68337 18.0668 8.72517 18.0522C8.76697 18.0359 8.80514 18.015 8.83968 17.9895C8.87603 17.9622 8.90693 17.9323 8.93237 17.8995C8.95782 17.865 8.976 17.8286 8.9869 17.7905V17.417C8.96327 17.3552 8.92965 17.3015 8.88603 17.2561C8.8424 17.2089 8.79333 17.1725 8.7388 17.1471C8.68427 17.1216 8.62884 17.1089 8.57249 17.1089C8.50706 17.1089 8.44799 17.1234 8.39528 17.1525C8.34438 17.1798 8.30076 17.217 8.26441 17.2643C8.22806 17.3097 8.19989 17.3615 8.17989 17.4197C8.1599 17.4779 8.1499 17.5378 8.1499 17.5996C8.1499 17.6651 8.16081 17.726 8.18262 17.7823C8.20625 17.8386 8.23806 17.8895 8.27804 17.935C8.31803 17.9786 8.36529 18.0131 8.41981 18.0386C8.47434 18.0622 8.53251 18.074 8.5943 18.074ZM10.2926 18.3303C10.1817 18.3303 10.0808 18.3112 9.98996 18.273C9.90089 18.2331 9.82365 18.1794 9.75821 18.1122C9.69278 18.0431 9.64189 17.965 9.60554 17.8777C9.571 17.7887 9.55373 17.6941 9.55373 17.5942C9.55373 17.4597 9.58463 17.337 9.64643 17.2261C9.70823 17.1134 9.79456 17.0235 9.90544 16.9562C10.0163 16.8871 10.1463 16.8526 10.2953 16.8526C10.4444 16.8526 10.5725 16.8871 10.6797 16.9562C10.7888 17.0235 10.8733 17.1125 10.9333 17.2234C10.9933 17.3343 11.0233 17.4533 11.0233 17.5805C11.0233 17.6024 11.0223 17.6233 11.0205 17.6433C11.0187 17.6614 11.0169 17.6769 11.0151 17.6896H9.87272C9.87817 17.7732 9.90089 17.8468 9.94088 17.9104C9.98268 17.9722 10.0354 18.0213 10.099 18.0577C10.1626 18.0922 10.2308 18.1095 10.3035 18.1095C10.3835 18.1095 10.4589 18.0895 10.5298 18.0495C10.6025 18.0095 10.6516 17.9568 10.677 17.8914L10.9333 17.965C10.9024 18.034 10.8551 18.0967 10.7915 18.1531C10.7297 18.2076 10.6561 18.2512 10.5707 18.284C10.4852 18.3149 10.3926 18.3303 10.2926 18.3303ZM9.86454 17.4906H10.7261C10.7206 17.4088 10.697 17.337 10.6552 17.2752C10.6152 17.2116 10.5634 17.1625 10.4998 17.128C10.438 17.0916 10.3689 17.0734 10.2926 17.0734C10.2181 17.0734 10.149 17.0916 10.0854 17.128C10.0236 17.1625 9.97269 17.2116 9.9327 17.2752C9.89271 17.337 9.86999 17.4088 9.86454 17.4906ZM12.5466 18.303H12.2467V17.5042C12.2467 17.3715 12.2248 17.2743 12.1812 17.2125C12.1394 17.1507 12.0767 17.1198 11.9931 17.1198C11.9349 17.1198 11.8768 17.1343 11.8186 17.1634C11.7623 17.1925 11.7114 17.2325 11.6659 17.2834C11.6205 17.3324 11.5878 17.3897 11.5678 17.4551V18.303H11.2679V16.8771H11.5405V17.1634C11.5769 17.0998 11.6241 17.0453 11.6823 16.9998C11.7423 16.9526 11.8095 16.9162 11.884 16.8908C11.9586 16.8653 12.0376 16.8526 12.1212 16.8526C12.2067 16.8526 12.2766 16.8681 12.3312 16.899C12.3875 16.9299 12.4311 16.9726 12.462 17.0271C12.4948 17.0798 12.5166 17.1416 12.5275 17.2125C12.5402 17.2816 12.5466 17.3552 12.5466 17.4333V18.303ZM13.5408 18.3303C13.4299 18.3303 13.3291 18.3112 13.2382 18.273C13.1491 18.2331 13.0719 18.1794 13.0064 18.1122C12.941 18.0431 12.8901 17.965 12.8538 17.8777C12.8192 17.7887 12.802 17.6941 12.802 17.5942C12.802 17.4597 12.8329 17.337 12.8947 17.2261C12.9565 17.1134 13.0428 17.0235 13.1537 16.9562C13.2645 16.8871 13.3945 16.8526 13.5435 16.8526C13.6926 16.8526 13.8207 16.8871 13.928 16.9562C14.037 17.0235 14.1215 17.1125 14.1815 17.2234C14.2415 17.3343 14.2715 17.4533 14.2715 17.5805C14.2715 17.6024 14.2706 17.6233 14.2688 17.6433C14.2669 17.6614 14.2651 17.6769 14.2633 17.6896H13.1209C13.1264 17.7732 13.1491 17.8468 13.1891 17.9104C13.2309 17.9722 13.2836 18.0213 13.3472 18.0577C13.4109 18.0922 13.479 18.1095 13.5517 18.1095C13.6317 18.1095 13.7071 18.0895 13.778 18.0495C13.8507 18.0095 13.8998 17.9568 13.9252 17.8914L14.1815 17.965C14.1506 18.034 14.1034 18.0967 14.0397 18.1531C13.9779 18.2076 13.9043 18.2512 13.8189 18.284C13.7335 18.3149 13.6408 18.3303 13.5408 18.3303ZM13.1128 17.4906H13.9743C13.9689 17.4088 13.9452 17.337 13.9034 17.2752C13.8634 17.2116 13.8116 17.1625 13.748 17.128C13.6862 17.0916 13.6172 17.0734 13.5408 17.0734C13.4663 17.0734 13.3972 17.0916 13.3336 17.128C13.2718 17.1625 13.2209 17.2116 13.1809 17.2752C13.1409 17.337 13.1182 17.4088 13.1128 17.4906ZM15.3177 17.1361C15.2013 17.138 15.0977 17.1643 15.0069 17.2152C14.9178 17.2661 14.8542 17.3379 14.816 17.4306V18.303H14.5161V16.8771H14.7942V17.1961C14.8433 17.098 14.9078 17.0198 14.9878 16.9617C15.0678 16.9017 15.1523 16.869 15.2413 16.8635C15.2595 16.8635 15.274 16.8635 15.285 16.8635C15.2977 16.8635 15.3086 16.8644 15.3177 16.8662V17.1361ZM15.4296 17.8859C15.4296 17.795 15.455 17.716 15.5059 17.6487C15.5586 17.5796 15.6304 17.5269 15.7213 17.4906C15.8122 17.4524 15.9176 17.4333 16.0376 17.4333C16.1012 17.4333 16.1657 17.4379 16.2311 17.447C16.2984 17.456 16.3575 17.4706 16.4083 17.4906V17.4006C16.4083 17.3006 16.3784 17.2225 16.3184 17.1661C16.2584 17.1098 16.1721 17.0816 16.0594 17.0816C15.9794 17.0816 15.904 17.0962 15.8331 17.1252C15.7622 17.1525 15.6868 17.1916 15.6068 17.2425L15.5059 17.0407C15.6004 16.9771 15.6949 16.9299 15.7895 16.899C15.8858 16.8681 15.9867 16.8526 16.0921 16.8526C16.2829 16.8526 16.4329 16.9035 16.5419 17.0053C16.6528 17.1052 16.7083 17.2479 16.7083 17.4333V17.965C16.7083 17.9995 16.7137 18.024 16.7246 18.0386C16.7373 18.0531 16.7582 18.0613 16.7873 18.0631V18.303C16.7601 18.3085 16.7355 18.3121 16.7137 18.3139C16.6919 18.3158 16.6737 18.3167 16.6592 18.3167C16.5956 18.3167 16.5474 18.3012 16.5147 18.2703C16.482 18.2394 16.4629 18.2031 16.4574 18.1613L16.4492 18.0795C16.3874 18.1595 16.3084 18.2212 16.212 18.2649C16.1157 18.3085 16.0185 18.3303 15.9203 18.3303C15.8258 18.3303 15.7413 18.3112 15.6668 18.273C15.5923 18.2331 15.5341 18.1794 15.4923 18.1122C15.4505 18.0449 15.4296 17.9695 15.4296 17.8859ZM16.3375 17.9731C16.3593 17.9495 16.3765 17.9259 16.3893 17.9023C16.402 17.8786 16.4083 17.8577 16.4083 17.8396V17.676C16.3575 17.656 16.3038 17.6414 16.2475 17.6323C16.1911 17.6214 16.1357 17.616 16.0812 17.616C15.9721 17.616 15.8831 17.6378 15.814 17.6814C15.7467 17.725 15.7131 17.785 15.7131 17.8614C15.7131 17.9032 15.724 17.9432 15.7458 17.9813C15.7695 18.0195 15.8022 18.0504 15.844 18.074C15.8876 18.0977 15.9412 18.1095 16.0048 18.1095C16.0703 18.1095 16.133 18.0967 16.193 18.0713C16.2529 18.0459 16.3011 18.0131 16.3375 17.9731ZM17.8548 18.2294C17.8294 18.2422 17.7976 18.2558 17.7594 18.2703C17.7212 18.2849 17.6776 18.2976 17.6285 18.3085C17.5813 18.3194 17.5322 18.3249 17.4813 18.3249C17.4195 18.3249 17.3623 18.3139 17.3095 18.2921C17.2568 18.2703 17.2141 18.2358 17.1814 18.1885C17.1505 18.1395 17.1351 18.0767 17.1351 18.0004V17.1089H16.9469V16.8771H17.1351V16.4082H17.435V16.8771H17.7458V17.1089H17.435V17.905C17.4386 17.9541 17.454 17.9904 17.4813 18.014C17.5104 18.0377 17.5458 18.0495 17.5876 18.0495C17.6294 18.0495 17.6694 18.0422 17.7076 18.0277C17.7458 18.0131 17.7739 18.0013 17.7921 17.9922L17.8548 18.2294ZM18.0625 18.303V16.8771H18.3624V18.303H18.0625ZM18.0625 16.6427V16.3128H18.3624V16.6427H18.0625ZM19.3635 18.3303C19.2508 18.3303 19.15 18.3112 19.0609 18.273C18.9718 18.2331 18.8946 18.1785 18.8292 18.1095C18.7655 18.0404 18.7165 17.9622 18.6819 17.875C18.6474 17.7859 18.6301 17.6914 18.6301 17.5915C18.6301 17.4915 18.6474 17.397 18.6819 17.3079C18.7165 17.2188 18.7655 17.1407 18.8292 17.0734C18.8946 17.0044 18.9718 16.9508 19.0609 16.9126C19.1518 16.8726 19.2527 16.8526 19.3635 16.8526C19.4744 16.8526 19.5744 16.8726 19.6634 16.9126C19.7543 16.9508 19.8316 17.0044 19.8952 17.0734C19.9606 17.1407 20.0106 17.2188 20.0451 17.3079C20.0797 17.397 20.0969 17.4915 20.0969 17.5915C20.0969 17.6914 20.0797 17.7859 20.0451 17.875C20.0106 17.9622 19.9606 18.0404 19.8952 18.1095C19.8316 18.1785 19.7543 18.2331 19.6634 18.273C19.5744 18.3112 19.4744 18.3303 19.3635 18.3303ZM18.9382 17.5942C18.9382 17.6851 18.9573 17.7669 18.9955 17.8396C19.0336 17.9123 19.0845 17.9695 19.1482 18.0113C19.2118 18.0531 19.2836 18.074 19.3635 18.074C19.4417 18.074 19.5126 18.0531 19.5762 18.0113C19.6416 17.9677 19.6934 17.9095 19.7316 17.8368C19.7698 17.7623 19.7889 17.6805 19.7889 17.5915C19.7889 17.5006 19.7698 17.4188 19.7316 17.3461C19.6934 17.2734 19.6416 17.2161 19.5762 17.1743C19.5126 17.1307 19.4417 17.1089 19.3635 17.1089C19.2836 17.1089 19.2118 17.1307 19.1482 17.1743C19.0845 17.2179 19.0336 17.2761 18.9955 17.3488C18.9573 17.4197 18.9382 17.5015 18.9382 17.5942ZM21.6416 18.303H21.3417V17.5042C21.3417 17.3715 21.3199 17.2743 21.2763 17.2125C21.2345 17.1507 21.1718 17.1198 21.0881 17.1198C21.03 17.1198 20.9718 17.1343 20.9137 17.1634C20.8573 17.1925 20.8064 17.2325 20.761 17.2834C20.7155 17.3324 20.6828 17.3897 20.6628 17.4551V18.303H20.3629V16.8771H20.6356V17.1634C20.6719 17.0998 20.7192 17.0453 20.7773 16.9998C20.8373 16.9526 20.9046 16.9162 20.9791 16.8908C21.0536 16.8653 21.1327 16.8526 21.2163 16.8526C21.3017 16.8526 21.3717 16.8681 21.4262 16.899C21.4826 16.9299 21.5262 16.9726 21.5571 17.0271C21.5898 17.0798 21.6116 17.1416 21.6225 17.2125C21.6352 17.2816 21.6416 17.3552 21.6416 17.4333V18.303ZM23.8466 16.8226C23.8284 16.8026 23.802 16.7817 23.7675 16.7599C23.733 16.7363 23.6921 16.7145 23.6448 16.6945C23.5975 16.6745 23.5467 16.6581 23.4921 16.6454C23.4376 16.6327 23.3813 16.6263 23.3231 16.6263C23.1959 16.6263 23.1013 16.6499 23.0395 16.6972C22.9778 16.7445 22.9469 16.8099 22.9469 16.8935C22.9469 16.9553 22.9641 17.0044 22.9987 17.0407C23.0332 17.0753 23.0859 17.1043 23.1568 17.128C23.2277 17.1516 23.3167 17.177 23.424 17.2043C23.5548 17.2352 23.6684 17.2725 23.7648 17.3161C23.8611 17.3579 23.9347 17.4142 23.9856 17.4851C24.0365 17.556 24.0619 17.6496 24.0619 17.7659C24.0619 17.8641 24.0438 17.9486 24.0074 18.0195C23.9711 18.0904 23.9202 18.1485 23.8547 18.194C23.7893 18.2376 23.7139 18.2703 23.6284 18.2921C23.543 18.3121 23.4512 18.3221 23.3531 18.3221C23.2568 18.3221 23.1604 18.3121 23.0641 18.2921C22.9696 18.2721 22.8787 18.2431 22.7914 18.2049C22.706 18.1649 22.627 18.1167 22.5543 18.0604L22.6933 17.7987C22.7169 17.8223 22.7506 17.8486 22.7942 17.8777C22.8396 17.905 22.8914 17.9313 22.9496 17.9568C23.0096 17.9822 23.0741 18.004 23.1432 18.0222C23.214 18.0386 23.2858 18.0468 23.3585 18.0468C23.4803 18.0468 23.573 18.0259 23.6366 17.9841C23.7021 17.9404 23.7348 17.8786 23.7348 17.7987C23.7348 17.7332 23.7139 17.6814 23.6721 17.6433C23.6303 17.6033 23.5694 17.5696 23.4894 17.5424C23.4094 17.5151 23.314 17.4879 23.2031 17.4606C23.0759 17.4261 22.9696 17.3888 22.8841 17.3488C22.7987 17.307 22.7342 17.2543 22.6906 17.1907C22.6488 17.1252 22.6279 17.0425 22.6279 16.9426C22.6279 16.8153 22.6588 16.7081 22.7206 16.6209C22.7824 16.5318 22.866 16.4655 22.9714 16.4218C23.0786 16.3764 23.1986 16.3537 23.3313 16.3537C23.4185 16.3537 23.5012 16.3637 23.5794 16.3837C23.6575 16.4018 23.7302 16.4273 23.7975 16.46C23.8666 16.4927 23.9293 16.53 23.9856 16.5718L23.8466 16.8226ZM24.2238 17.8859C24.2238 17.795 24.2492 17.716 24.3001 17.6487C24.3528 17.5796 24.4246 17.5269 24.5155 17.4906C24.6064 17.4524 24.7118 17.4333 24.8317 17.4333C24.8954 17.4333 24.9599 17.4379 25.0253 17.447C25.0926 17.456 25.1516 17.4706 25.2025 17.4906V17.4006C25.2025 17.3006 25.1725 17.2225 25.1126 17.1661C25.0526 17.1098 24.9662 17.0816 24.8536 17.0816C24.7736 17.0816 24.6981 17.0962 24.6273 17.1252C24.5564 17.1525 24.4809 17.1916 24.401 17.2425L24.3001 17.0407C24.3946 16.9771 24.4891 16.9299 24.5836 16.899C24.68 16.8681 24.7808 16.8526 24.8863 16.8526C25.0771 16.8526 25.2271 16.9035 25.3361 17.0053C25.447 17.1052 25.5024 17.2479 25.5024 17.4333V17.965C25.5024 17.9995 25.5079 18.024 25.5188 18.0386C25.5315 18.0531 25.5524 18.0613 25.5815 18.0631V18.303C25.5542 18.3085 25.5297 18.3121 25.5079 18.3139C25.4861 18.3158 25.4679 18.3167 25.4534 18.3167C25.3897 18.3167 25.3416 18.3012 25.3089 18.2703C25.2761 18.2394 25.2571 18.2031 25.2516 18.1613L25.2434 18.0795C25.1816 18.1595 25.1026 18.2212 25.0062 18.2649C24.9099 18.3085 24.8127 18.3303 24.7145 18.3303C24.62 18.3303 24.5355 18.3112 24.461 18.273C24.3864 18.2331 24.3283 18.1794 24.2865 18.1122C24.2447 18.0449 24.2238 17.9695 24.2238 17.8859ZM25.1316 17.9731C25.1535 17.9495 25.1707 17.9259 25.1834 17.9023C25.1962 17.8786 25.2025 17.8577 25.2025 17.8396V17.676C25.1516 17.656 25.098 17.6414 25.0417 17.6323C24.9853 17.6214 24.9299 17.616 24.8754 17.616C24.7663 17.616 24.6772 17.6378 24.6082 17.6814C24.5409 17.725 24.5073 17.785 24.5073 17.8614C24.5073 17.9032 24.5182 17.9432 24.54 17.9813C24.5636 18.0195 24.5964 18.0504 24.6382 18.074C24.6818 18.0977 24.7354 18.1095 24.799 18.1095C24.8645 18.1095 24.9272 18.0967 24.9871 18.0713C25.0471 18.0459 25.0953 18.0131 25.1316 17.9731ZM25.7627 17.8859C25.7627 17.795 25.7881 17.716 25.839 17.6487C25.8917 17.5796 25.9635 17.5269 26.0544 17.4906C26.1453 17.4524 26.2507 17.4333 26.3707 17.4333C26.4343 17.4333 26.4988 17.4379 26.5642 17.447C26.6315 17.456 26.6906 17.4706 26.7414 17.4906V17.4006C26.7414 17.3006 26.7115 17.2225 26.6515 17.1661C26.5915 17.1098 26.5052 17.0816 26.3925 17.0816C26.3125 17.0816 26.2371 17.0962 26.1662 17.1252C26.0953 17.1525 26.0199 17.1916 25.9399 17.2425L25.839 17.0407C25.9335 16.9771 26.028 16.9299 26.1226 16.899C26.2189 16.8681 26.3198 16.8526 26.4252 16.8526C26.616 16.8526 26.766 16.9035 26.875 17.0053C26.9859 17.1052 27.0413 17.2479 27.0413 17.4333V17.965C27.0413 17.9995 27.0468 18.024 27.0577 18.0386C27.0704 18.0531 27.0913 18.0613 27.1204 18.0631V18.303C27.0931 18.3085 27.0686 18.3121 27.0468 18.3139C27.025 18.3158 27.0068 18.3167 26.9923 18.3167C26.9287 18.3167 26.8805 18.3012 26.8478 18.2703C26.8151 18.2394 26.796 18.2031 26.7905 18.1613L26.7823 18.0795C26.7205 18.1595 26.6415 18.2212 26.5451 18.2649C26.4488 18.3085 26.3516 18.3303 26.2534 18.3303C26.1589 18.3303 26.0744 18.3112 25.9999 18.273C25.9253 18.2331 25.8672 18.1794 25.8254 18.1122C25.7836 18.0449 25.7627 17.9695 25.7627 17.8859ZM26.6706 17.9731C26.6924 17.9495 26.7096 17.9259 26.7224 17.9023C26.7351 17.8786 26.7414 17.8577 26.7414 17.8396V17.676C26.6906 17.656 26.6369 17.6414 26.5806 17.6323C26.5242 17.6214 26.4688 17.616 26.4143 17.616C26.3052 17.616 26.2162 17.6378 26.1471 17.6814C26.0798 17.725 26.0462 17.785 26.0462 17.8614C26.0462 17.9032 26.0571 17.9432 26.0789 17.9813C26.1026 18.0195 26.1353 18.0504 26.1771 18.074C26.2207 18.0977 26.2743 18.1095 26.3379 18.1095C26.4034 18.1095 26.4661 18.0967 26.5261 18.0713C26.586 18.0459 26.6342 18.0131 26.6706 17.9731ZM28.5884 16.8226C28.5703 16.8026 28.5439 16.7817 28.5094 16.7599C28.4748 16.7363 28.4339 16.7145 28.3867 16.6945C28.3394 16.6745 28.2885 16.6581 28.234 16.6454C28.1795 16.6327 28.1231 16.6263 28.065 16.6263C27.9377 16.6263 27.8432 16.6499 27.7814 16.6972C27.7196 16.7445 27.6887 16.8099 27.6887 16.8935C27.6887 16.9553 27.706 17.0044 27.7405 17.0407C27.7751 17.0753 27.8278 17.1043 27.8987 17.128C27.9696 17.1516 28.0586 17.177 28.1659 17.2043C28.2967 17.2352 28.4103 17.2725 28.5066 17.3161C28.603 17.3579 28.6766 17.4142 28.7275 17.4851C28.7784 17.556 28.8038 17.6496 28.8038 17.7659C28.8038 17.8641 28.7856 17.9486 28.7493 18.0195C28.7129 18.0904 28.6621 18.1485 28.5966 18.194C28.5312 18.2376 28.4558 18.2703 28.3703 18.2921C28.2849 18.3121 28.1931 18.3221 28.095 18.3221C27.9986 18.3221 27.9023 18.3121 27.806 18.2921C27.7115 18.2721 27.6206 18.2431 27.5333 18.2049C27.4479 18.1649 27.3688 18.1167 27.2961 18.0604L27.4352 17.7987C27.4588 17.8223 27.4924 17.8486 27.5361 17.8777C27.5815 17.905 27.6333 17.9313 27.6915 17.9568C27.7514 17.9822 27.816 18.004 27.885 18.0222C27.9559 18.0386 28.0277 18.0468 28.1004 18.0468C28.2222 18.0468 28.3149 18.0259 28.3785 17.9841C28.4439 17.9404 28.4767 17.8786 28.4767 17.7987C28.4767 17.7332 28.4558 17.6814 28.414 17.6433C28.3721 17.6033 28.3113 17.5696 28.2313 17.5424C28.1513 17.5151 28.0559 17.4879 27.945 17.4606C27.8178 17.4261 27.7115 17.3888 27.626 17.3488C27.5406 17.307 27.4761 17.2543 27.4325 17.1907C27.3907 17.1252 27.3697 17.0425 27.3697 16.9426C27.3697 16.8153 27.4006 16.7081 27.4624 16.6209C27.5242 16.5318 27.6079 16.4655 27.7133 16.4218C27.8205 16.3764 27.9405 16.3537 28.0732 16.3537C28.1604 16.3537 28.2431 16.3637 28.3213 16.3837C28.3994 16.4018 28.4721 16.4273 28.5394 16.46C28.6084 16.4927 28.6711 16.53 28.7275 16.5718L28.5884 16.8226ZM30.5552 18.3303C30.4407 18.3303 30.3399 18.303 30.2526 18.2485C30.1654 18.194 30.0963 18.1231 30.0454 18.0359V18.8838H29.7455V16.8771H30.01V17.1334C30.0645 17.048 30.1354 16.9798 30.2226 16.9289C30.3099 16.8781 30.4071 16.8526 30.5144 16.8526C30.6125 16.8526 30.7025 16.8726 30.7843 16.9126C30.8661 16.9508 30.9369 17.0044 30.9969 17.0734C31.0569 17.1425 31.1033 17.2216 31.136 17.3106C31.1705 17.3979 31.1878 17.4906 31.1878 17.5887C31.1878 17.725 31.1605 17.8496 31.106 17.9622C31.0533 18.0749 30.9787 18.1649 30.8824 18.2322C30.7879 18.2976 30.6788 18.3303 30.5552 18.3303ZM30.4571 18.074C30.5207 18.074 30.578 18.0604 30.6289 18.0331C30.6816 18.0059 30.7261 17.9695 30.7625 17.9241C30.8006 17.8786 30.8297 17.8268 30.8497 17.7687C30.8697 17.7105 30.8797 17.6505 30.8797 17.5887C30.8797 17.5233 30.8688 17.4615 30.847 17.4033C30.8252 17.3452 30.7934 17.2943 30.7515 17.2507C30.7116 17.207 30.6643 17.1725 30.6098 17.1471C30.5571 17.1216 30.4989 17.1089 30.4353 17.1089C30.3971 17.1089 30.3571 17.1162 30.3153 17.1307C30.2735 17.1452 30.2344 17.1652 30.1981 17.1907C30.1617 17.2161 30.1299 17.2461 30.1027 17.2806C30.0754 17.3152 30.0563 17.3515 30.0454 17.3897V17.7632C30.0709 17.8214 30.1045 17.8741 30.1463 17.9213C30.1881 17.9668 30.2363 18.004 30.2908 18.0331C30.3453 18.0604 30.4008 18.074 30.4571 18.074ZM31.4602 16.3128H31.7601V17.8914C31.7601 17.9641 31.771 18.0104 31.7928 18.0304C31.8146 18.0504 31.8419 18.0604 31.8746 18.0604C31.911 18.0604 31.9446 18.0568 31.9755 18.0495C32.0082 18.0422 32.0364 18.0331 32.06 18.0222L32.1036 18.2594C32.06 18.2776 32.0082 18.293 31.9482 18.3058C31.8883 18.3185 31.8346 18.3249 31.7874 18.3249C31.6856 18.3249 31.6056 18.2967 31.5475 18.2403C31.4893 18.1822 31.4602 18.1022 31.4602 18.0004V16.3128ZM32.1739 17.8859C32.1739 17.795 32.1994 17.716 32.2503 17.6487C32.303 17.5796 32.3748 17.5269 32.4657 17.4906C32.5565 17.4524 32.662 17.4333 32.7819 17.4333C32.8455 17.4333 32.9101 17.4379 32.9755 17.447C33.0427 17.456 33.1018 17.4706 33.1527 17.4906V17.4006C33.1527 17.3006 33.1227 17.2225 33.0627 17.1661C33.0028 17.1098 32.9164 17.0816 32.8037 17.0816C32.7238 17.0816 32.6483 17.0962 32.5774 17.1252C32.5066 17.1525 32.4311 17.1916 32.3511 17.2425L32.2503 17.0407C32.3448 16.9771 32.4393 16.9299 32.5338 16.899C32.6301 16.8681 32.731 16.8526 32.8364 16.8526C33.0273 16.8526 33.1772 16.9035 33.2863 17.0053C33.3972 17.1052 33.4526 17.2479 33.4526 17.4333V17.965C33.4526 17.9995 33.4581 18.024 33.469 18.0386C33.4817 18.0531 33.5026 18.0613 33.5317 18.0631V18.303C33.5044 18.3085 33.4799 18.3121 33.4581 18.3139C33.4362 18.3158 33.4181 18.3167 33.4035 18.3167C33.3399 18.3167 33.2917 18.3012 33.259 18.2703C33.2263 18.2394 33.2072 18.2031 33.2018 18.1613L33.1936 18.0795C33.1318 18.1595 33.0527 18.2212 32.9564 18.2649C32.8601 18.3085 32.7628 18.3303 32.6647 18.3303C32.5702 18.3303 32.4856 18.3112 32.4111 18.273C32.3366 18.2331 32.2784 18.1794 32.2366 18.1122C32.1948 18.0449 32.1739 17.9695 32.1739 17.8859ZM33.0818 17.9731C33.1036 17.9495 33.1209 17.9259 33.1336 17.9023C33.1463 17.8786 33.1527 17.8577 33.1527 17.8396V17.676C33.1018 17.656 33.0482 17.6414 32.9918 17.6323C32.9355 17.6214 32.8801 17.616 32.8255 17.616C32.7165 17.616 32.6274 17.6378 32.5584 17.6814C32.4911 17.725 32.4575 17.785 32.4575 17.8614C32.4575 17.9032 32.4684 17.9432 32.4902 17.9813C32.5138 18.0195 32.5465 18.0504 32.5883 18.074C32.632 18.0977 32.6856 18.1095 32.7492 18.1095C32.8146 18.1095 32.8773 18.0967 32.9373 18.0713C32.9973 18.0459 33.0455 18.0131 33.0818 17.9731ZM34.5992 18.2294C34.5737 18.2422 34.5419 18.2558 34.5038 18.2703C34.4656 18.2849 34.422 18.2976 34.3729 18.3085C34.3256 18.3194 34.2766 18.3249 34.2257 18.3249C34.1639 18.3249 34.1066 18.3139 34.0539 18.2921C34.0012 18.2703 33.9585 18.2358 33.9258 18.1885C33.8949 18.1395 33.8794 18.0767 33.8794 18.0004V17.1089H33.6913V16.8771H33.8794V16.4082H34.1793V16.8771H34.4901V17.1089H34.1793V17.905C34.1829 17.9541 34.1984 17.9904 34.2257 18.014C34.2547 18.0377 34.2902 18.0495 34.332 18.0495C34.3738 18.0495 34.4138 18.0422 34.452 18.0277C34.4901 18.0131 34.5183 18.0013 34.5365 17.9922L34.5992 18.2294ZM34.886 18.303V17.1443H34.6952V16.9126H34.886V16.8553C34.886 16.739 34.9042 16.6381 34.9406 16.5527C34.9787 16.4673 35.0314 16.4018 35.0987 16.3564C35.1677 16.3091 35.2486 16.2855 35.3413 16.2855C35.3995 16.2855 35.4567 16.2937 35.5131 16.3101C35.5694 16.3246 35.6231 16.3455 35.6739 16.3728L35.6085 16.5963C35.5813 16.5781 35.5485 16.5645 35.5104 16.5554C35.474 16.5445 35.4386 16.5391 35.404 16.5391C35.335 16.5391 35.2813 16.5654 35.2432 16.6181C35.205 16.6708 35.1859 16.7472 35.1859 16.8472V16.9126H35.5513V17.1443H35.1859V18.303H34.886ZM36.3928 18.3303C36.2801 18.3303 36.1792 18.3112 36.0901 18.273C36.0011 18.2331 35.9238 18.1785 35.8584 18.1095C35.7948 18.0404 35.7457 17.9622 35.7112 17.875C35.6766 17.7859 35.6594 17.6914 35.6594 17.5915C35.6594 17.4915 35.6766 17.397 35.7112 17.3079C35.7457 17.2188 35.7948 17.1407 35.8584 17.0734C35.9238 17.0044 36.0011 16.9508 36.0901 16.9126C36.181 16.8726 36.2819 16.8526 36.3928 16.8526C36.5036 16.8526 36.6036 16.8726 36.6927 16.9126C36.7836 16.9508 36.8608 17.0044 36.9244 17.0734C36.9899 17.1407 37.0398 17.2188 37.0744 17.3079C37.1089 17.397 37.1262 17.4915 37.1262 17.5915C37.1262 17.6914 37.1089 17.7859 37.0744 17.875C37.0398 17.9622 36.9899 18.0404 36.9244 18.1095C36.8608 18.1785 36.7836 18.2331 36.6927 18.273C36.6036 18.3112 36.5036 18.3303 36.3928 18.3303ZM35.9675 17.5942C35.9675 17.6851 35.9865 17.7669 36.0247 17.8396C36.0629 17.9123 36.1138 17.9695 36.1774 18.0113C36.241 18.0531 36.3128 18.074 36.3928 18.074C36.4709 18.074 36.5418 18.0531 36.6054 18.0113C36.6709 17.9677 36.7227 17.9095 36.7608 17.8368C36.799 17.7623 36.8181 17.6805 36.8181 17.5915C36.8181 17.5006 36.799 17.4188 36.7608 17.3461C36.7227 17.2734 36.6709 17.2161 36.6054 17.1743C36.5418 17.1307 36.4709 17.1089 36.3928 17.1089C36.3128 17.1089 36.241 17.1307 36.1774 17.1743C36.1138 17.2179 36.0629 17.2761 36.0247 17.3488C35.9865 17.4197 35.9675 17.5015 35.9675 17.5942ZM38.1937 17.1361C38.0774 17.138 37.9738 17.1643 37.8829 17.2152C37.7939 17.2661 37.7302 17.3379 37.6921 17.4306V18.303H37.3922V16.8771H37.6703V17.1961C37.7193 17.098 37.7839 17.0198 37.8638 16.9617C37.9438 16.9017 38.0283 16.869 38.1174 16.8635C38.1356 16.8635 38.1501 16.8635 38.161 16.8635C38.1737 16.8635 38.1846 16.8644 38.1937 16.8662V17.1361ZM40.593 18.303H40.2931V17.5042C40.2931 17.3715 40.2713 17.2743 40.2277 17.2125C40.184 17.1507 40.1204 17.1198 40.0368 17.1198C39.9532 17.1198 39.8751 17.1516 39.8023 17.2152C39.7315 17.277 39.6815 17.3579 39.6524 17.4579V18.303H39.3525V17.5042C39.3525 17.3715 39.3307 17.2743 39.2871 17.2125C39.2434 17.1507 39.1807 17.1198 39.0989 17.1198C39.0153 17.1198 38.9372 17.1507 38.8645 17.2125C38.7936 17.2743 38.7427 17.3552 38.7118 17.4551V18.303H38.4119V16.8771H38.6845V17.1634C38.7409 17.0634 38.8145 16.9871 38.9054 16.9344C38.9981 16.8799 39.1035 16.8526 39.2216 16.8526C39.3398 16.8526 39.4325 16.8835 39.4997 16.9453C39.5688 17.0071 39.6115 17.0843 39.6279 17.177C39.6897 17.0716 39.7651 16.9916 39.8542 16.9371C39.945 16.8808 40.0486 16.8526 40.165 16.8526C40.2486 16.8526 40.3185 16.8681 40.3749 16.899C40.4312 16.9299 40.4749 16.9726 40.5058 17.0271C40.5367 17.0798 40.5585 17.1416 40.5712 17.2125C40.5857 17.2816 40.593 17.3552 40.593 17.4333V18.303ZM41.694 18.303V17.1443H41.5031V16.9126H41.694V16.8553C41.694 16.739 41.7122 16.6381 41.7485 16.5527C41.7867 16.4673 41.8394 16.4018 41.9066 16.3564C41.9757 16.3091 42.0566 16.2855 42.1493 16.2855C42.2075 16.2855 42.2647 16.2937 42.3211 16.3101C42.3774 16.3246 42.431 16.3455 42.4819 16.3728L42.4165 16.5963C42.3892 16.5781 42.3565 16.5645 42.3183 16.5554C42.282 16.5445 42.2465 16.5391 42.212 16.5391C42.1429 16.5391 42.0893 16.5654 42.0511 16.6181C42.013 16.6708 41.9939 16.7472 41.9939 16.8472V16.9126H42.3592V17.1443H41.9939V18.303H41.694ZM43.2007 18.3303C43.0881 18.3303 42.9872 18.3112 42.8981 18.273C42.8091 18.2331 42.7318 18.1785 42.6664 18.1095C42.6028 18.0404 42.5537 17.9622 42.5191 17.875C42.4846 17.7859 42.4673 17.6914 42.4673 17.5915C42.4673 17.4915 42.4846 17.397 42.5191 17.3079C42.5537 17.2188 42.6028 17.1407 42.6664 17.0734C42.7318 17.0044 42.8091 16.9508 42.8981 16.9126C42.989 16.8726 43.0899 16.8526 43.2007 16.8526C43.3116 16.8526 43.4116 16.8726 43.5006 16.9126C43.5915 16.9508 43.6688 17.0044 43.7324 17.0734C43.7978 17.1407 43.8478 17.2188 43.8823 17.3079C43.9169 17.397 43.9341 17.4915 43.9341 17.5915C43.9341 17.6914 43.9169 17.7859 43.8823 17.875C43.8478 17.9622 43.7978 18.0404 43.7324 18.1095C43.6688 18.1785 43.5915 18.2331 43.5006 18.273C43.4116 18.3112 43.3116 18.3303 43.2007 18.3303ZM42.7754 17.5942C42.7754 17.6851 42.7945 17.7669 42.8327 17.8396C42.8708 17.9123 42.9217 17.9695 42.9854 18.0113C43.049 18.0531 43.1208 18.074 43.2007 18.074C43.2789 18.074 43.3498 18.0531 43.4134 18.0113C43.4788 17.9677 43.5306 17.9095 43.5688 17.8368C43.607 17.7623 43.6261 17.6805 43.6261 17.5915C43.6261 17.5006 43.607 17.4188 43.5688 17.3461C43.5306 17.2734 43.4788 17.2161 43.4134 17.1743C43.3498 17.1307 43.2789 17.1089 43.2007 17.1089C43.1208 17.1089 43.049 17.1307 42.9854 17.1743C42.9217 17.2179 42.8708 17.2761 42.8327 17.3488C42.7945 17.4197 42.7754 17.5015 42.7754 17.5942ZM45.0017 17.1361C44.8854 17.138 44.7818 17.1643 44.6909 17.2152C44.6018 17.2661 44.5382 17.3379 44.5 17.4306V18.303H44.2001V16.8771H44.4782V17.1961C44.5273 17.098 44.5918 17.0198 44.6718 16.9617C44.7518 16.9017 44.8363 16.869 44.9254 16.8635C44.9435 16.8635 44.9581 16.8635 44.969 16.8635C44.9817 16.8635 44.9926 16.8644 45.0017 16.8662V17.1361ZM47.4599 16.3673V18.303H47.1518V17.4497H46.1758V18.303H45.8704V16.3673H46.1758V17.177H47.1518V16.3673H47.4599ZM48.4806 18.3303C48.3697 18.3303 48.2688 18.3112 48.1779 18.273C48.0889 18.2331 48.0116 18.1794 47.9462 18.1122C47.8808 18.0431 47.8299 17.965 47.7935 17.8777C47.759 17.7887 47.7417 17.6941 47.7417 17.5942C47.7417 17.4597 47.7726 17.337 47.8344 17.2261C47.8962 17.1134 47.9826 17.0235 48.0934 16.9562C48.2043 16.8871 48.3343 16.8526 48.4833 16.8526C48.6323 16.8526 48.7605 16.8871 48.8677 16.9562C48.9768 17.0235 49.0613 17.1125 49.1213 17.2234C49.1813 17.3343 49.2112 17.4533 49.2112 17.5805C49.2112 17.6024 49.2103 17.6233 49.2085 17.6433C49.2067 17.6614 49.2049 17.6769 49.2031 17.6896H48.0607C48.0662 17.7732 48.0889 17.8468 48.1289 17.9104C48.1707 17.9722 48.2234 18.0213 48.287 18.0577C48.3506 18.0922 48.4188 18.1095 48.4915 18.1095C48.5715 18.1095 48.6469 18.0895 48.7178 18.0495C48.7905 18.0095 48.8395 17.9568 48.865 17.8914L49.1213 17.965C49.0904 18.034 49.0431 18.0967 48.9795 18.1531C48.9177 18.2076 48.8441 18.2512 48.7587 18.284C48.6732 18.3149 48.5805 18.3303 48.4806 18.3303ZM48.0525 17.4906H48.9141C48.9086 17.4088 48.885 17.337 48.8432 17.2752C48.8032 17.2116 48.7514 17.1625 48.6878 17.128C48.626 17.0916 48.5569 17.0734 48.4806 17.0734C48.4061 17.0734 48.337 17.0916 48.2734 17.128C48.2116 17.1625 48.1607 17.2116 48.1207 17.2752C48.0807 17.337 48.058 17.4088 48.0525 17.4906ZM49.3523 17.8859C49.3523 17.795 49.3777 17.716 49.4286 17.6487C49.4813 17.5796 49.5531 17.5269 49.644 17.4906C49.7349 17.4524 49.8403 17.4333 49.9603 17.4333C50.0239 17.4333 50.0884 17.4379 50.1538 17.447C50.2211 17.456 50.2801 17.4706 50.331 17.4906V17.4006C50.331 17.3006 50.3011 17.2225 50.2411 17.1661C50.1811 17.1098 50.0948 17.0816 49.9821 17.0816C49.9021 17.0816 49.8267 17.0962 49.7558 17.1252C49.6849 17.1525 49.6095 17.1916 49.5295 17.2425L49.4286 17.0407C49.5231 16.9771 49.6176 16.9299 49.7122 16.899C49.8085 16.8681 49.9094 16.8526 50.0148 16.8526C50.2056 16.8526 50.3556 16.9035 50.4646 17.0053C50.5755 17.1052 50.6309 17.2479 50.6309 17.4333V17.965C50.6309 17.9995 50.6364 18.024 50.6473 18.0386C50.66 18.0531 50.6809 18.0613 50.71 18.0631V18.303C50.6827 18.3085 50.6582 18.3121 50.6364 18.3139C50.6146 18.3158 50.5964 18.3167 50.5819 18.3167C50.5183 18.3167 50.4701 18.3012 50.4374 18.2703C50.4047 18.2394 50.3856 18.2031 50.3801 18.1613L50.3719 18.0795C50.3101 18.1595 50.2311 18.2212 50.1347 18.2649C50.0384 18.3085 49.9412 18.3303 49.843 18.3303C49.7485 18.3303 49.664 18.3112 49.5895 18.273C49.5149 18.2331 49.4568 18.1794 49.415 18.1122C49.3732 18.0449 49.3523 17.9695 49.3523 17.8859ZM50.2602 17.9731C50.282 17.9495 50.2992 17.9259 50.312 17.9023C50.3247 17.8786 50.331 17.8577 50.331 17.8396V17.676C50.2801 17.656 50.2265 17.6414 50.1702 17.6323C50.1138 17.6214 50.0584 17.616 50.0039 17.616C49.8948 17.616 49.8058 17.6378 49.7367 17.6814C49.6694 17.725 49.6358 17.785 49.6358 17.8614C49.6358 17.9032 49.6467 17.9432 49.6685 17.9813C49.6922 18.0195 49.7249 18.0504 49.7667 18.074C49.8103 18.0977 49.8639 18.1095 49.9275 18.1095C49.993 18.1095 50.0557 18.0967 50.1157 18.0713C50.1756 18.0459 50.2238 18.0131 50.2602 17.9731ZM50.9975 16.3128H51.2974V17.8914C51.2974 17.9641 51.3083 18.0104 51.3301 18.0304C51.3519 18.0504 51.3792 18.0604 51.4119 18.0604C51.4483 18.0604 51.4819 18.0568 51.5128 18.0495C51.5455 18.0422 51.5737 18.0331 51.5973 18.0222L51.6409 18.2594C51.5973 18.2776 51.5455 18.293 51.4855 18.3058C51.4256 18.3185 51.3719 18.3249 51.3247 18.3249C51.2229 18.3249 51.1429 18.2967 51.0848 18.2403C51.0266 18.1822 50.9975 18.1022 50.9975 18.0004V16.3128ZM52.6002 18.2294C52.5748 18.2422 52.543 18.2558 52.5048 18.2703C52.4666 18.2849 52.423 18.2976 52.3739 18.3085C52.3267 18.3194 52.2776 18.3249 52.2267 18.3249C52.1649 18.3249 52.1077 18.3139 52.0549 18.2921C52.0022 18.2703 51.9595 18.2358 51.9268 18.1885C51.8959 18.1395 51.8805 18.0767 51.8805 18.0004V17.1089H51.6923V16.8771H51.8805V16.4082H52.1804V16.8771H52.4912V17.1089H52.1804V17.905C52.184 17.9541 52.1994 17.9904 52.2267 18.014C52.2558 18.0377 52.2912 18.0495 52.333 18.0495C52.3748 18.0495 52.4148 18.0422 52.453 18.0277C52.4912 18.0131 52.5193 18.0013 52.5375 17.9922L52.6002 18.2294ZM54.0866 18.303H53.7867V17.5042C53.7867 17.3752 53.7631 17.2788 53.7158 17.2152C53.6686 17.1516 53.6022 17.1198 53.5168 17.1198C53.4641 17.1198 53.4096 17.1343 53.3532 17.1634C53.2969 17.1925 53.2469 17.2325 53.2033 17.2834C53.1596 17.3324 53.1278 17.3897 53.1078 17.4551V18.303H52.8079V16.3128H53.1078V17.1634C53.1624 17.0671 53.2369 16.9916 53.3314 16.9371C53.4259 16.8808 53.5277 16.8526 53.6368 16.8526C53.7258 16.8526 53.7994 16.8681 53.8576 16.899C53.9158 16.9299 53.9612 16.9726 53.9939 17.0271C54.0285 17.0798 54.0521 17.1416 54.0648 17.2125C54.0793 17.2816 54.0866 17.3552 54.0866 17.4333V18.303ZM55.0809 18.3303C54.97 18.3303 54.8691 18.3112 54.7782 18.273C54.6892 18.2331 54.6119 18.1785 54.5465 18.1095C54.4811 18.0404 54.4302 17.9613 54.3938 17.8723C54.3593 17.7832 54.342 17.6887 54.342 17.5887C54.342 17.4542 54.372 17.3315 54.432 17.2207C54.4938 17.1098 54.5792 17.0207 54.6883 16.9535C54.7991 16.8862 54.93 16.8526 55.0809 16.8526C55.2263 16.8526 55.3526 16.8853 55.4598 16.9508C55.5689 17.0144 55.6489 17.0998 55.6998 17.207L55.408 17.2997C55.3753 17.2398 55.329 17.1934 55.269 17.1607C55.2108 17.1262 55.1463 17.1089 55.0754 17.1089C54.9954 17.1089 54.9227 17.1298 54.8573 17.1716C54.7937 17.2116 54.7428 17.2679 54.7046 17.3406C54.6683 17.4115 54.6501 17.4942 54.6501 17.5887C54.6501 17.6796 54.6692 17.7623 54.7074 17.8368C54.7455 17.9095 54.7964 17.9677 54.86 18.0113C54.9255 18.0531 54.9982 18.074 55.0781 18.074C55.1272 18.074 55.1745 18.0658 55.2199 18.0495C55.2672 18.0313 55.3081 18.0077 55.3426 17.9786C55.3771 17.9477 55.4017 17.9141 55.4162 17.8777L55.7107 17.965C55.6798 18.0359 55.6334 18.0986 55.5716 18.1531C55.5116 18.2076 55.4398 18.2512 55.3562 18.284C55.2744 18.3149 55.1827 18.3303 55.0809 18.3303ZM55.8541 17.8859C55.8541 17.795 55.8795 17.716 55.9304 17.6487C55.9831 17.5796 56.0549 17.5269 56.1458 17.4906C56.2367 17.4524 56.3421 17.4333 56.462 17.4333C56.5257 17.4333 56.5902 17.4379 56.6556 17.447C56.7229 17.456 56.7819 17.4706 56.8328 17.4906V17.4006C56.8328 17.3006 56.8028 17.2225 56.7429 17.1661C56.6829 17.1098 56.5965 17.0816 56.4838 17.0816C56.4039 17.0816 56.3284 17.0962 56.2576 17.1252C56.1867 17.1525 56.1112 17.1916 56.0313 17.2425L55.9304 17.0407C56.0249 16.9771 56.1194 16.9299 56.2139 16.899C56.3103 16.8681 56.4111 16.8526 56.5166 16.8526C56.7074 16.8526 56.8574 16.9035 56.9664 17.0053C57.0773 17.1052 57.1327 17.2479 57.1327 17.4333V17.965C57.1327 17.9995 57.1382 18.024 57.1491 18.0386C57.1618 18.0531 57.1827 18.0613 57.2118 18.0631V18.303C57.1845 18.3085 57.16 18.3121 57.1382 18.3139C57.1164 18.3158 57.0982 18.3167 57.0837 18.3167C57.02 18.3167 56.9719 18.3012 56.9392 18.2703C56.9064 18.2394 56.8874 18.2031 56.8819 18.1613L56.8737 18.0795C56.8119 18.1595 56.7329 18.2212 56.6365 18.2649C56.5402 18.3085 56.443 18.3303 56.3448 18.3303C56.2503 18.3303 56.1658 18.3112 56.0912 18.273C56.0167 18.2331 55.9586 18.1794 55.9168 18.1122C55.875 18.0449 55.8541 17.9695 55.8541 17.8859ZM56.7619 17.9731C56.7837 17.9495 56.801 17.9259 56.8137 17.9023C56.8265 17.8786 56.8328 17.8577 56.8328 17.8396V17.676C56.7819 17.656 56.7283 17.6414 56.672 17.6323C56.6156 17.6214 56.5602 17.616 56.5057 17.616C56.3966 17.616 56.3075 17.6378 56.2385 17.6814C56.1712 17.725 56.1376 17.785 56.1376 17.8614C56.1376 17.9032 56.1485 17.9432 56.1703 17.9813C56.1939 18.0195 56.2267 18.0504 56.2685 18.074C56.3121 18.0977 56.3657 18.1095 56.4293 18.1095C56.4948 18.1095 56.5575 18.0967 56.6174 18.0713C56.6774 18.0459 56.7256 18.0131 56.7619 17.9731ZM58.2981 17.1361C58.1818 17.138 58.0782 17.1643 57.9873 17.2152C57.8983 17.2661 57.8346 17.3379 57.7965 17.4306V18.303H57.4966V16.8771H57.7747V17.1961C57.8237 17.098 57.8883 17.0198 57.9682 16.9617C58.0482 16.9017 58.1327 16.869 58.2218 16.8635C58.24 16.8635 58.2545 16.8635 58.2654 16.8635C58.2781 16.8635 58.289 16.8644 58.2981 16.8662V17.1361ZM59.1385 18.3303C59.0276 18.3303 58.9267 18.3112 58.8359 18.273C58.7468 18.2331 58.6696 18.1794 58.6041 18.1122C58.5387 18.0431 58.4878 17.965 58.4514 17.8777C58.4169 17.7887 58.3996 17.6941 58.3996 17.5942C58.3996 17.4597 58.4305 17.337 58.4923 17.2261C58.5541 17.1134 58.6405 17.0235 58.7513 16.9562C58.8622 16.8871 58.9922 16.8526 59.1412 16.8526C59.2903 16.8526 59.4184 16.8871 59.5256 16.9562C59.6347 17.0235 59.7192 17.1125 59.7792 17.2234C59.8392 17.3343 59.8692 17.4533 59.8692 17.5805C59.8692 17.6024 59.8683 17.6233 59.8664 17.6433C59.8646 17.6614 59.8628 17.6769 59.861 17.6896H58.7186C58.7241 17.7732 58.7468 17.8468 58.7868 17.9104C58.8286 17.9722 58.8813 18.0213 58.9449 18.0577C59.0085 18.0922 59.0767 18.1095 59.1494 18.1095C59.2294 18.1095 59.3048 18.0895 59.3757 18.0495C59.4484 18.0095 59.4975 17.9568 59.5229 17.8914L59.7792 17.965C59.7483 18.034 59.701 18.0967 59.6374 18.1531C59.5756 18.2076 59.502 18.2512 59.4166 18.284C59.3312 18.3149 59.2385 18.3303 59.1385 18.3303ZM58.7104 17.4906H59.572C59.5665 17.4088 59.5429 17.337 59.5011 17.2752C59.4611 17.2116 59.4093 17.1625 59.3457 17.128C59.2839 17.0916 59.2148 17.0734 59.1385 17.0734C59.064 17.0734 58.9949 17.0916 58.9313 17.128C58.8695 17.1625 58.8186 17.2116 58.7786 17.2752C58.7386 17.337 58.7159 17.4088 58.7104 17.4906Z" fill="#00ACC1"/>
<defs>
<clipPath id="clip0_2_138">
<rect width="47.9843" height="5.45276" fill="white" transform="translate(6.52625 8.7597)"/>
</clipPath>
<clipPath id="clip1_2_138">
<rect width="4.34575" height="5.12125" fill="white" transform="translate(50.3459 9.12549)"/>
</clipPath>
</defs>
</svg>
